<svg width="36" height="36" viewBox="0 0 36 36" fill="none" xmlns="http://www.w3.org/2000/svg">
<circle cx="18" cy="18" r="18" fill="#F2F3F5"/>
<path d="M25.4049 24.9941V23.0989C25.4049 22.0936 25.0056 21.1295 24.2947 20.4186C23.5839 19.7078 22.6198 19.3084 21.6145 19.3084H14.0336C13.0283 19.3084 12.0642 19.7078 11.3534 20.4186C10.6425 21.1295 10.2432 22.0936 10.2432 23.0989V24.9941" stroke="#C6CCD1" stroke-width="2.04156" stroke-linecap="round" stroke-linejoin="round"/>
<path d="M17.8241 15.5184C19.9175 15.5184 21.6146 13.8214 21.6146 11.728C21.6146 9.63457 19.9175 7.93753 17.8241 7.93753C15.7307 7.93753 14.0337 9.63457 14.0337 11.728C14.0337 13.8214 15.7307 15.5184 17.8241 15.5184Z" stroke="#C6CCD1" stroke-width="2.04156" stroke-linecap="round" stroke-linejoin="round"/>
</svg>
